<svg xmlns="http://www.w3.org/2000/svg" width="24" height="24" viewBox="0 0 24 24"><path fill-rule="evenodd" d="M21.396 19.49l-1.886-1.9A9.34 9.34 0 0021.354 12a9.34 9.34 0 00-1.86-5.612l1.885-1.9A12.008 12.008 0 0124 12c0 2.833-.974 5.437-2.604 7.49zm-1.87 1.886A11.8 11.8 0 0112.092 24a11.8 11.8 0 01-7.454-2.642l1.886-1.9a9.173 9.173 0 005.568 1.875c2.08 0 4-.69 5.546-1.858l1.886 1.9zM4.66 2.624A11.8 11.8 0 0112.093 0a11.8 11.8 0 017.41 2.607l-1.886 1.901a9.173 9.173 0 00-5.524-1.841c-2.08 0-4 .69-5.546 1.858l-1.886-1.9zM10.762 13H1.167C.522 13 0 12.552 0 12s.522-1 1.167-1h9.595L8.266 7.926a1.212 1.212 0 01.12-1.645 1.065 1.065 0 011.558.126l3.79 4.667c.199.245.285.552.263.85a.87.87 0 010 .152c.022.298-.064.605-.263.85l-3.79 4.667a1.065 1.065 0 01-1.558.126 1.212 1.212 0 01-.12-1.645L10.762 13z"/></svg>