<svg xmlns="http://www.w3.org/2000/svg" width="37" height="32" viewBox="0 0 37 32"><path fill="#7130CC" fill-rule="evenodd" d="M19.466 18.232V4.051c6.17.507 11.02 5.655 11.02 11.932 0 6.612-5.383 11.973-12.022 11.973S6.443 22.596 6.443 15.983c0-6.277 4.85-11.425 11.02-11.932v14.181l-3.337-2.99a1.005 1.005 0 00-1.415.073.995.995 0 00.074 1.41l4.677 4.192v.055h.061l.271.242c.381.342.96.342 1.34 0l.271-.242h.061v-.055l4.677-4.193a.995.995 0 00.075-1.409 1.005 1.005 0 00-1.415-.074l-3.337 2.991zm15.067 7.02l-.868-.5C38.487 16.4 35.598 5.704 27.213.863l.5-.864c8.863 5.118 11.917 16.423 6.82 25.252zM2.468 6.785l.867.5c-4.822 8.352-1.933 19.047 6.452 23.888l-.499.864C.424 26.919-2.63 15.614 2.468 6.785z"/></svg>