<svg width="36" height="26" viewBox="0 0 36 26" xmlns="http://www.w3.org/2000/svg"><path d="M5.305.423c.493-.515 1.327-.515 1.857 0 .53.48.53 1.29 0 1.805-2.918 2.798-4.51 6.517-4.51 10.531 0 3.977 1.592 7.733 4.51 10.568.53.48.53 1.29 0 1.805a1.336 1.336 0 01-.947.368c-.341 0-.682-.11-.948-.368C1.857 21.818 0 17.436 0 12.759 0 8.083 1.857 3.664 5.305.423zm23.57-.036c.493-.516 1.327-.516 1.858 0C34.143 3.664 36 8.083 36 12.722c0 4.677-1.857 9.059-5.267 12.373a1.336 1.336 0 01-.948.368c-.34 0-.682-.11-.947-.368-.53-.479-.53-1.289 0-1.804 2.918-2.799 4.51-6.555 4.51-10.532 0-4.014-1.592-7.733-4.472-10.568-.53-.479-.53-1.289 0-1.804zM9.058 4.032c.492-.515 1.326-.515 1.857 0 .53.479.53 1.289 0 1.804-1.895 1.842-2.956 4.309-2.956 6.923 0 2.578 1.06 5.082 2.994 6.923.492.479.53 1.289 0 1.804a1.336 1.336 0 01-.948.369c-.34 0-.682-.111-.947-.369-2.388-2.283-3.752-5.45-3.752-8.727 0-3.314 1.327-6.407 3.752-8.727zm16.067 0c.493-.515 1.327-.515 1.857 0 2.387 2.32 3.714 5.413 3.752 8.69 0 3.314-1.327 6.408-3.714 8.727a1.336 1.336 0 01-.947.369c-.341 0-.683-.11-.948-.369-.53-.478-.53-1.288 0-1.804 1.895-1.841 2.956-4.271 2.956-6.886 0-2.614-1.061-5.081-2.956-6.923-.53-.478-.53-1.288 0-1.804zM18 5.542c4.093 0 7.427 3.24 7.427 7.217 0 3.977-3.334 7.18-7.427 7.18s-7.39-3.277-7.39-7.217c0-3.94 3.297-7.18 7.39-7.18zm-2.442 4.614s-.187.891-.187 2.724c0 1.832.186 2.707.186 2.707.066.438.519.661 1.006.49l.025-.007c.17-.052 1.218-.384 2.707-1.162 1.63-.851 2.547-1.617 2.547-1.617.304-.232.298-.602-.018-.822 0 0-.801-.626-2.53-1.528-1.727-.903-2.746-1.244-2.746-1.244-.481-.184-.929.021-.99.459z" fill-rule="evenodd"/></svg>
