<svg xmlns="http://www.w3.org/2000/svg" width="26" height="17" viewBox="0 0 26 17"><path fill="#3F2A5D" fill-rule="evenodd" d="M7.648 5.06L5.829 2.496c-.211-.298-.086-.68.28-.852.366-.173.835-.07 1.046.228l9.953 14.036c.212.298.086.68-.28.852-.366.172-.834.07-1.046-.228l-1.327-1.872h-7.58v-.01c-.127.007-.254.01-.383.01C3.321 14.66.75 12.566.75 9.982s2.57-4.679 5.742-4.679c.394 0 .778.032 1.15.094a4.147 4.147 0 01.006-.337zm1.395-2.935C10.167 1.018 11.865.312 13.766.312c2.88 0 5.295 1.62 5.95 3.802 3.132.383 5.534 2.585 5.534 5.244 0 2.824-2.709 5.132-6.125 5.293v.01h-1.2L9.044 2.124z"/></svg>