<svg xmlns="http://www.w3.org/2000/svg" width="37" height="27" viewBox="0 0 37 27"><path fill="#FD9369" fill-rule="evenodd" d="M18.451 25.233c-6.64 0-12.021-5.36-12.021-11.974 0-6.612 5.382-11.973 12.021-11.973 6.64 0 12.021 5.36 12.021 11.973s-5.382 11.974-12.02 11.974zm-.5-4.547h.976a.37.37 0 00.272-.112.37.37 0 00.112-.272v-1.104c1.141-.117 2.042-.466 2.704-1.048.661-.581.992-1.33.992-2.248 0-.63-.134-1.146-.4-1.552-.267-.405-.68-.741-1.24-1.008-.56-.266-1.31-.506-2.248-.72-.694-.181-1.224-.346-1.592-.496-.368-.15-.638-.32-.808-.512-.17-.192-.256-.437-.256-.736 0-.426.17-.752.512-.976.341-.224.805-.336 1.392-.336.544 0 .997.115 1.36.344.362.23.57.515.624.856.085.203.245.304.48.304h1.488a.326.326 0 00.336-.336c-.022-.394-.163-.8-.424-1.216-.262-.416-.64-.781-1.136-1.096-.496-.314-1.09-.52-1.784-.616V6.67a.37.37 0 00-.112-.272.37.37 0 00-.272-.112h-.976a.385.385 0 00-.272.104.364.364 0 00-.112.28v1.104c-1.046.128-1.87.478-2.472 1.048a2.784 2.784 0 00-.904 2.104c0 .918.29 1.624.872 2.12.581.496 1.501.894 2.76 1.192.768.192 1.35.36 1.744.504.394.144.688.312.88.504a.997.997 0 01.288.736c0 .448-.192.798-.576 1.048-.384.25-.95.376-1.696.376-.672 0-1.198-.122-1.576-.368-.379-.245-.627-.55-.744-.912a.74.74 0 00-.2-.232.484.484 0 00-.28-.072h-1.424a.353.353 0 00-.248.096.313.313 0 00-.104.24c.021.49.173.952.456 1.384.282.432.698.795 1.248 1.088.55.294 1.208.478 1.976.552v1.12c0 .118.037.21.112.28.074.07.165.104.272.104zm13.402 5.904l-.696-.72c6.937-6.7 7.108-17.776.383-24.74l.717-.694c7.11 7.363 6.93 19.072-.404 26.154zM5.621 0l.695.72C-.62 7.42-.792 18.497 5.934 25.46l-.718.694C-1.894 18.79-1.713 7.082 5.621 0z"/></svg>