<svg xmlns="http://www.w3.org/2000/svg" width="24" height="24" viewBox="0 0 24 24"><path fill-rule="evenodd" d="M1.573 12.265L0 10.705C.651 4.685 5.786 0 12.025 0c6.09 0 11.128 4.465 11.97 10.276l-1.307-1.297-.013.012-.013-.012-2.363 2.344c-.347-4.233-3.918-7.562-8.274-7.562-3.836 0-7.063 2.58-8.016 6.087l-2.436 2.417zm21.102.11L24 13.69C23.172 19.517 18.127 24 12.025 24 6.122 24 1.209 19.805.144 14.256l1.416 1.405.013-.013.013.013 2.26-2.242c.678 3.874 4.08 6.82 8.179 6.82a8.31 8.31 0 007.533-4.77l3.117-3.094z"/></svg>