<svg xmlns="http://www.w3.org/2000/svg" width="30" height="32" viewBox="0 0 30 32"><g fill="none" fill-rule="evenodd"><path fill="#B280F9" d="M29.199 15.762s-3.287 3.294-9.133 6.96c-5.846 3.666-9.792 5.03-9.792 5.03-1.748.736-3.37-.226-3.607-2.11 0 0-.667-3.763-.667-11.652 0-7.888.67-11.724.67-11.724C6.89.382 8.494-.502 10.22.29c0 0 3.653 1.47 9.847 5.354 6.194 3.885 9.068 6.577 9.068 6.577 1.133.948 1.154 2.543.065 3.541z" opacity=".48"/><path fill="#D3B7FB" d="M23.199 19.762s-3.287 3.294-9.133 6.96c-5.846 3.666-9.792 5.03-9.792 5.03-1.748.736-3.37-.226-3.607-2.11 0 0-.667-3.763-.667-11.652C0 10.102.67 6.266.67 6.266.89 4.382 2.494 3.498 4.22 4.29c0 0 3.653 1.47 9.847 5.354 6.194 3.885 9.068 6.577 9.068 6.577 1.133.948 1.154 2.543.065 3.541z"/></g></svg>