<svg xmlns="http://www.w3.org/2000/svg" width="31" height="30" viewBox="0 0 31 30">
  <g fill="none" fill-rule="evenodd" transform="translate(-2 -3)">
    <path fill="#B280F9" d="M21.6666667,22.6666667 C22.7712362,22.6666667 23.6666667,23.5620972 23.6666667,24.6666667 L23.6666667,28.6666667 C23.6666667,29.7712362 22.7712362,30.6666667 21.6666667,30.6666667 L2.66666667,30.6666667 C1.56209717,30.6666667 0.666666667,29.7712362 0.666666667,28.6666667 L0.666666667,24.6666667 C0.666666667,23.5620972 1.56209717,22.6666667 2.66666667,22.6666667 L21.6666667,22.6666667 Z M21.6666667,0.666666667 C22.7712362,0.666666667 23.6666667,1.56209717 23.6666667,2.66666667 L23.6666667,6.66666667 C23.6666667,7.77123617 22.7712362,8.66666667 21.6666667,8.66666667 L2.66666667,8.66666667 C1.56209717,8.66666667 0.666666667,7.77123617 0.666666667,6.66666667 L0.666666667,2.66666667 C0.666666667,1.56209717 1.56209717,0.666666667 2.66666667,0.666666667 L21.6666667,0.666666667 Z" opacity=".48" transform="translate(5.333 2.333)"/>
    <path fill="#D3B7FB" d="M31,8 C32.1045695,8 33,8.8954305 33,10 L33,26 C33,27.1045695 32.1045695,28 31,28 L4,28 C2.8954305,28 2,27.1045695 2,26 L2,10 C2,8.8954305 2.8954305,8 4,8 L31,8 Z M27,16 C25.8954305,16 25,16.8954305 25,18 C25,19.1045695 25.8954305,20 27,20 C28.1045695,20 29,19.1045695 29,18 C29,16.8954305 28.1045695,16 27,16 Z M20,17 L7,17 C6.44771525,17 6,17.4477153 6,18 C6,18.5522847 6.44771525,19 7,19 L7,19 L20,19 C20.5522847,19 21,18.5522847 21,18 C21,17.4477153 20.5522847,17 20,17 L20,17 Z"/>
  </g>
</svg>
