<svg xmlns="http://www.w3.org/2000/svg" width="10" height="15" viewBox="0 0 10 15">
  <path fill-rule="evenodd" d="M3.92736826,12.1794738 L9.32222222,8.13333333 C9.39586019,8.07810486 9.41078403,7.97363797 9.35555556,7.9 C9.34607985,7.88736572 9.3348565,7.87614237 9.32222222,7.86666667 L3.92736826,3.8205262 C3.65305519,3.61479139 3.46854735,3.31128411 3.41217636,2.97305818 L3.12765735,1.26594412 C3.10041884,1.10251302 3.21082474,0.947944761 3.37425583,0.920706245 C3.45767637,0.906802822 3.54309033,0.928755521 3.60946882,0.981159592 L12.3343025,7.86918621 C12.406549,7.92622289 12.418879,8.03102758 12.3618423,8.10327405 C12.3537702,8.1134987 12.3445272,8.1227417 12.3343025,8.13081379 L3.60946882,15.0188404 C3.47942518,15.1215064 3.29077673,15.0993125 3.1881107,14.9692689 C3.13570663,14.9028904 3.11375393,14.8174764 3.12765735,14.7340559 L3.41217636,13.0269418 C3.46854735,12.6887159 3.65305519,12.3852086 3.92736826,12.1794738 Z" transform="translate(-2.5)"/>
</svg>
