<svg xmlns="http://www.w3.org/2000/svg" width="37" height="32" viewBox="0 0 37 32">
  <path fill="#7130CC" fill-rule="evenodd" d="M20.4660241,22.2324404 L20.4660241,8.05055095 C26.6364432,8.55756945 31.4854695,13.7061819 31.4854695,19.9828272 C31.4854695,26.5954753 26.103389,31.9560857 19.4642563,31.9560857 C12.8251236,31.9560857 7.44304312,26.5954753 7.44304312,19.9828272 C7.44304312,13.7061819 12.2920694,8.55756945 18.4624885,8.05055095 L18.4624885,22.2324404 L15.1255648,19.2411894 C14.7143291,18.8725537 14.0809215,18.905758 13.7108094,19.3153532 C13.3406972,19.7249484 13.3740345,20.3558292 13.7852702,20.7244649 L18.4624885,24.9171691 L18.4624885,24.9716849 L18.5233043,24.9716849 L18.794109,25.2144369 C19.1750863,25.5559486 19.7534263,25.5559486 20.1344036,25.2144369 L20.4052083,24.9716849 L20.4660241,24.9716849 L20.4660241,24.9171691 L25.1432424,20.7244649 C25.5544781,20.3558292 25.5878154,19.7249484 25.2177032,19.3153532 C24.8475911,18.905758 24.2141835,18.8725537 23.8029478,19.2411894 L20.4660241,22.2324404 Z M35.532531,29.2521186 L34.6649747,28.7512347 C39.4866972,20.3997663 36.5981571,9.70512977 28.2132398,4.8640955 L28.7121256,4 C37.576181,9.1176648 40.6297806,20.4234234 35.532531,29.2521186 Z M3.46757791,10.7848465 L4.33513424,11.2857304 C-0.486588311,19.6371988 2.40195177,30.3318353 10.7868691,35.1728696 L10.2879833,36.0369651 C1.42392787,30.9193003 -1.62967165,19.6135417 3.46757791,10.7848465 Z" transform="translate(-1 -4)"/>
</svg>
