<svg xmlns="http://www.w3.org/2000/svg" width="28" height="16" viewBox="0 0 28 16">
  <path fill="#5F4681" fill-rule="evenodd" d="M5,10 L23,10 C23.5522847,10 24,10.4477153 24,11 C24,11.5522847 23.5522847,12 23,12 L5,12 C4.44771525,12 4,11.5522847 4,11 C4,10.4477153 4.44771525,10 5,10 Z M5,17 L31,17 C31.5522847,17 32,17.4477153 32,18 C32,18.5522847 31.5522847,19 31,19 L5,19 C4.44771525,19 4,18.5522847 4,18 C4,17.4477153 4.44771525,17 5,17 Z M5,24 L23,24 C23.5522847,24 24,24.4477153 24,25 C24,25.5522847 23.5522847,26 23,26 L5,26 C4.44771525,26 4,25.5522847 4,25 C4,24.4477153 4.44771525,24 5,24 Z" transform="translate(-4 -10)"/>
</svg>
