<svg xmlns="http://www.w3.org/2000/svg" width="56" height="45" viewBox="0 0 56 45"><path fill-rule="evenodd" d="M11.368 7.317c7.905-8.955 21.572-9.81 30.528-1.904l-.014.12.1-.1a21.658 21.658 0 016.405 10.083l.128.45a15.64 15.64 0 016.875 13.08c-.066 8.633-7.12 15.578-15.754 15.511H27.614l-.077-.077-11.962.001c-3.27.016-6.457-1-9.109-2.898l-.329-.242.017-.068-.017.018A15.626 15.626 0 01.04 29.383l-.007-.39c-.031-5.48 2.756-10.316 7.004-13.133l-.125.033-.203.074a21.623 21.623 0 014.659-8.65zm23.825 4.951c-4.944-4-12.148-3.452-16.428 1.25-.042-.008-.089.006-.14.036 3.71.725 7.07 2.783 9.407 5.842l-6.971 6.972a6.025 6.025 0 00-3.004-3.004 6.013 6.013 0 00-7.952 3.004 6.013 6.013 0 003.004 7.951 5.92 5.92 0 002.466.539h12.022v.09l.017-.017h12.022a6.012 6.012 0 000-12.023v-1.2a12.007 12.007 0 00-4.406-9.523l.099.083z"/></svg>