<svg viewBox="0 0 36 36" xmlns="http://www.w3.org/2000/svg"><path d="M18 2C9.164 2 2 9.164 2 18s7.164 16 16 16 16-7.164 16-16S26.836 2 18 2zm0 30.857C9.794 32.857 3.143 26.205 3.143 18 3.143 9.795 9.794 3.143 18 3.143c8.205 0 14.857 6.652 14.857 14.857 0 8.205-6.652 14.857-14.857 14.857zM11.02 14.64c-.648.158-1.376.358-1.996.567A2.297 2.297 0 0 1 8.5 16.59a18.562 18.562 0 0 0 2.542 3.463 2.8 2.8 0 0 1 .3-.118c.064-1.324.291-3.12.515-4.33a1.681 1.681 0 0 1-.837-.966zm1.398.186c.58.24 1.31-.114 1.632-.79.32-.676.112-1.42-.468-1.659-.58-.241-1.31.113-1.631.79-.321.676-.112 1.418.467 1.659zm13.816-2.379a1.82 1.82 0 0 1 .158-.121c.4-.271.882-.365 1.372-.307.165-1.183.21-2.37.106-3.535a13.67 13.67 0 0 0-8.488-4.128c.587 1.823 1.641 3.509 2.91 4.924 1.283 1.433 2.594 2.451 3.942 3.167zm-11.276.062a25.305 25.305 0 0 1 1.706-.153c2.486-.13 5.08-.034 7.574.46-2.65-2.011-4.834-5.081-5.708-8.35-1.724 2.04-3.217 4.612-4.208 7.228.296.197.509.482.636.815zm13.874-.12a3.353 3.353 0 0 1 1.27 1.353c.324.055.652.099.98.135a13.687 13.687 0 0 0-2.431-4.512c.153.992.21 2.005.181 3.025zM19.22 27.6c0 .752.761 1.36 1.7 1.36s1.7-.608 1.7-1.36c0-.75-.761-1.36-1.7-1.36s-1.7.61-1.7 1.36zm7.825-14.4c-.61.428-.677 1.402-.15 2.175.527.773 1.45 1.052 2.06.625.61-.428.676-1.402.15-2.175-.529-.772-1.45-1.052-2.06-.625zm-.403 3.224a3.362 3.362 0 0 1-.924-1.374c-2.323-.696-4.748-1.005-6.405-1.087-1.44-.071-2.9-.065-4.351.05a2.6 2.6 0 0 1-.126.323c-.34.691-.94 1.182-1.587 1.373a34.467 34.467 0 0 0-.25 4.208 2.8 2.8 0 0 1 1.895 3.438c1.344.873 2.982 1.732 4.376 2.38a2.941 2.941 0 0 1 1.65-.495c.194 0 .385.02.568.054a25.206 25.206 0 0 0 2.39-3.244c1.047-1.68 2.028-3.601 2.764-5.626zM7.936 13.476c.317.102.568.304.754.56.756-.294 1.533-.54 2.31-.752a2.65 2.65 0 0 1 .164-.42c.412-.84 1.21-1.383 2.005-1.454a25.33 25.33 0 0 1 4.4-7.113 13.7 13.7 0 0 0-11.075 6.244c.123.997.333 1.966.628 2.9.271-.054.548-.051.814.035zM20.92 29.96c-.246 0-.484-.031-.71-.085a17.11 17.11 0 0 1-2.415 1.761l.089.076.116.002c2.606 0 5.042-.726 7.116-1.989a47.682 47.682 0 0 1-2.186-.554c-.494.484-1.21.789-2.01.789zm-2.7-2.36c0-.092.008-.182.02-.27-1.508-.722-2.954-1.565-4.28-2.554-.09.074-.186.14-.285.2.413 1.57 1.55 3.828 2.303 4.658.842-.375 1.65-.834 2.354-1.365a2.087 2.087 0 0 1-.112-.669zm11.463-10.782c-.025.018-.048.04-.075.057-.434.293-.962.379-1.494.289a25.72 25.72 0 0 1-2.738 6.486 27.447 27.447 0 0 1-2.028 2.924c.146.262.237.55.262.856 1.254.372 2.494.608 3.564.763a13.68 13.68 0 0 0 4.518-9.434c-.497-.751-1.19-1.395-2.01-1.941zM12.2 20.8a1.8 1.8 0 1 0 0 3.6 1.8 1.8 0 0 0 0-3.6zm-6.675-5.943c.138-.362.358-.667.62-.907a14.9 14.9 0 0 1-.378-2.148 13.613 13.613 0 0 0-1.412 4.809c.32-.293.662-.57 1.025-.83a2.25 2.25 0 0 1 .145-.924zm1.26 1.697c.522.18 1.13-.191 1.358-.829.228-.638-.009-1.3-.529-1.48-.52-.18-1.128.191-1.357.829-.229.638.009 1.3.529 1.48zM9.4 22.6c0-.6.19-1.153.51-1.608a19.664 19.664 0 0 1-2.47-3.672 1.637 1.637 0 0 1-.977.004 1.49 1.49 0 0 1-.736-.54c-.556.372-1.054.801-1.44 1.303.035 5.604 3.43 10.409 8.273 12.504.25-.033.5-.068.747-.115-.772-1.567-1.292-3.32-1.608-5.123A2.798 2.798 0 0 1 9.4 22.6z" fill-rule="evenodd"/></svg>
