<svg xmlns="http://www.w3.org/2000/svg" width="26" height="17" viewBox="0 0 26 17">
  <path fill="#3F2A5D" fill-rule="evenodd" d="M8.6477348,9.06044255 L6.82925955,6.49603208 C6.61772067,6.19772033 6.74303747,5.81616719 7.10916246,5.64380929 C7.47528746,5.47145139 7.94357656,5.57355716 8.15511545,5.87186891 L18.1082404,19.9077476 C18.3197793,20.2060594 18.1944625,20.5876125 17.8283375,20.7599704 C17.4622125,20.9323283 16.9939234,20.8302225 16.7823846,20.5319108 L15.4551784,18.6602871 L7.875,18.6602871 L7.875,18.6500551 C7.74847143,18.6568407 7.62082343,18.6602871 7.4921875,18.6602871 C4.32086491,18.6602871 1.75,16.5655948 1.75,13.9816609 C1.75,11.397727 4.32086491,9.30303465 7.4921875,9.30303465 C7.88586243,9.30303465 8.27028447,9.33531327 8.64168444,9.39679943 C8.64097918,9.36561358 8.640625,9.33435782 8.640625,9.30303465 C8.640625,9.22170152 8.64301294,9.14082282 8.6477348,9.06044255 Z M10.0432001,6.12472217 C11.1666481,5.01781485 12.8650449,4.3125 14.765625,4.3125 C17.645619,4.3125 20.0613587,5.93204808 20.7158079,8.11434371 C23.848135,8.4972115 26.25,10.6989875 26.25,13.3578441 C26.25,16.1815965 23.5409812,18.4898163 20.125,18.6512656 L20.125,18.6602871 L18.925845,18.6602871 L10.0432001,6.12472217 Z" transform="translate(-1 -4)"/>
</svg>
