<svg xmlns="http://www.w3.org/2000/svg" width="37" height="27" viewBox="0 0 37 27">
  <path fill="#FD9369" fill-rule="evenodd" d="M20.451074,32.2326932 C13.8119413,32.2326932 8.42986078,26.8720828 8.42986078,20.2594348 C8.42986078,13.6467867 13.8119413,8.28617627 20.451074,8.28617627 C27.0902067,8.28617627 32.4722871,13.6467867 32.4722871,20.2594348 C32.4722871,26.8720828 27.0902067,32.2326932 20.451074,32.2326932 Z M19.9508177,27.6861763 L20.9268177,27.6861763 C21.0334849,27.6861763 21.1241506,27.6488433 21.1988177,27.5741763 C21.2734847,27.4995092 21.3108177,27.4088435 21.3108177,27.3021763 L21.3108177,26.1981763 C22.4521567,26.0808423 23.353481,25.7315125 24.0148177,25.1501763 C24.6761543,24.56884 25.0068177,23.8195142 25.0068177,22.9021763 C25.0068177,22.2728398 24.8734857,21.7555116 24.6068177,21.3501763 C24.3401497,20.9448409 23.9268205,20.6088443 23.3668177,20.3421763 C22.8068149,20.0755083 22.057489,19.8355107 21.1188177,19.6221763 C20.4254809,19.440842 19.8948195,19.2755103 19.5268177,19.1261763 C19.1588158,18.9768422 18.8894852,18.8061772 18.7188177,18.6141763 C18.5481501,18.4221753 18.4628177,18.1768444 18.4628177,17.8781763 C18.4628177,17.4515075 18.6334826,17.1261774 18.9748177,16.9021763 C19.3161527,16.6781751 19.7801481,16.5661763 20.3668177,16.5661763 C20.9108204,16.5661763 21.3641492,16.6808418 21.7268177,16.9101763 C22.0894861,17.1395107 22.2974841,17.4248412 22.3508177,17.7661763 C22.4361514,17.9688439 22.5961498,18.0701763 22.8308177,18.0701763 L24.3188177,18.0701763 C24.4148181,18.0701763 24.4948173,18.0381766 24.5588177,17.9741763 C24.622818,17.9101759 24.6548177,17.8301767 24.6548177,17.7341763 C24.6334842,17.3395076 24.4921523,16.9341783 24.2308177,16.5181763 C23.969483,16.1021742 23.5908201,15.7368445 23.0948177,15.4221763 C22.5988152,15.107508 22.0041545,14.9021767 21.3108177,14.8061763 L21.3108177,13.6701763 C21.3108177,13.5635091 21.2734847,13.4728433 21.1988177,13.3981763 C21.1241506,13.3235092 21.0334849,13.2861763 20.9268177,13.2861763 L19.9508177,13.2861763 C19.8441505,13.2861763 19.7534847,13.3208426 19.6788177,13.3901763 C19.6041506,13.4595099 19.5668177,13.5528423 19.5668177,13.6701763 L19.5668177,14.7741763 C18.5214791,14.9021769 17.6974873,15.2515067 17.0948177,15.8221763 C16.492148,16.3928458 16.1908177,17.0941721 16.1908177,17.9261763 C16.1908177,18.8435142 16.4814814,19.5501738 17.0628177,20.0461763 C17.6441539,20.5421787 18.5641447,20.9395081 19.8228177,21.2381763 C20.5908215,21.4301772 21.172149,21.5981755 21.5668177,21.7421763 C21.9614863,21.886177 22.2548167,22.0541753 22.4468177,22.2461763 C22.6388186,22.4381772 22.7348177,22.6835081 22.7348177,22.9821763 C22.7348177,23.4301785 22.5428196,23.7795083 22.1588177,24.0301763 C21.7748157,24.2808442 21.2094881,24.4061763 20.4628177,24.4061763 C19.7908143,24.4061763 19.2654862,24.2835108 18.8868177,24.0381763 C18.5081491,23.7928417 18.2601516,23.4888447 18.1428177,23.1261763 C18.0788173,23.0195091 18.0121513,22.9421765 17.9428177,22.8941763 C17.873484,22.846176 17.7801516,22.8221763 17.6628177,22.8221763 L16.2388177,22.8221763 C16.1428172,22.8221763 16.0601513,22.8541759 15.9908177,22.9181763 C15.921484,22.9821766 15.8868177,23.0621758 15.8868177,23.1581763 C15.9081511,23.6488454 16.0601496,24.1101741 16.3428177,24.5421763 C16.6254857,24.9741784 17.0414816,25.3368415 17.5908177,25.6301763 C18.1401537,25.9235111 18.7988138,26.1075092 19.5668177,26.1821763 L19.5668177,27.3021763 C19.5668177,27.4195102 19.6041506,27.5128426 19.6788177,27.5821763 C19.7534847,27.6515099 19.8441505,27.6861763 19.9508177,27.6861763 Z M33.3531427,33.5901802 L32.6572563,32.8695688 C39.5941702,26.1706689 39.7653686,15.0941349 33.0396386,8.12943769 L33.7573754,7.43632734 C40.8674328,14.7990073 40.6864516,26.5084861 33.3531427,33.5901802 Z M7.62060155,7 L8.31648792,7.72061142 C1.37957405,14.4195113 1.20837566,25.4960453 7.93410561,32.4607425 L7.21636883,33.1538529 C0.106311449,25.7911729 0.287292604,14.0816941 7.62060155,7 Z" transform="translate(-2 -7)"/>
</svg>
