<svg xmlns="http://www.w3.org/2000/svg" width="36" height="32" viewBox="0 0 36 32">
  <path fill-rule="evenodd" d="M22,14 L34,14 C35.1045695,14 36,14.8954305 36,16 L36,20 C36,21.1045695 35.1045695,22 34,22 L28,22 L28,26 C28,27.6568542 26.6568542,29 25,29 L24,29 L24,30 C24,31.1045695 23.1045695,32 22,32 L2,32 C0.8954305,32 1.3527075e-16,31.1045695 0,30 L0,26 C-1.3527075e-16,24.8954305 0.8954305,24 2,24 L22,24 C23.1045695,24 24,24.8954305 24,26 L24,27 L25,27 C25.5522847,27 26,26.5522847 26,26 L26,22 L14,22 C12.8954305,22 12,21.1045695 12,20 L12,16 C12,14.8954305 12.8954305,14 14,14 L20,14 L20,13 C20,12.4477153 19.5522847,12 19,12 L16,12 C14.3431458,12 13,10.6568542 13,9 L13,8 L2,8 C0.8954305,8 1.3527075e-16,7.1045695 0,6 L0,2 C-1.3527075e-16,0.8954305 0.8954305,2.02906125e-16 2,0 L22,0 C23.1045695,-2.02906125e-16 24,0.8954305 24,2 L24,6 C24,7.1045695 23.1045695,8 22,8 L15,8 L15,9 C15,9.55228475 15.4477153,10 16,10 L19,10 C20.6568542,10 22,11.3431458 22,13 L22,14 Z"/>
</svg>
