<svg xmlns="http://www.w3.org/2000/svg" width="24" height="24" viewBox="0 0 24 24">
  <path fill-rule="evenodd" d="M1.57291039,12.2646483 L-1.49213975e-13,10.7043787 C0.651274844,4.68638582 5.78625443,2.30926389e-14 12.0248946,2.30926389e-14 C18.1147025,2.30926389e-14 23.1525129,4.46515951 23.9954494,10.2757361 L22.6880814,8.97865418 L22.6752326,8.99140192 L22.662116,8.97865418 L20.2990029,11.323175 C19.9518169,7.08959931 16.3814495,3.76084719 12.0248946,3.76084719 C8.18898481,3.76084719 4.9623235,6.34173223 4.00856588,9.84815589 L1.57291039,12.2646483 Z M22.6752326,12.3753942 L24,13.6900043 C23.1723215,19.5170468 18.1267483,24 12.0248946,24 C6.12246537,24 1.20859265,19.8051987 0.14401392,14.2564818 L1.56006157,15.6613883 L1.57291039,15.648375 L1.58575922,15.6613883 L3.84581409,13.419115 C4.52412501,17.2928327 7.92665462,20.2391528 12.0248946,20.2391528 C15.3621093,20.2391528 18.2375694,18.2850314 19.5577863,15.4685788 L22.6752326,12.3753942 Z"/>
</svg>
