<svg xmlns="http://www.w3.org/2000/svg" width="21" height="21" viewBox="0 0 21 21">
  <path fill="#EEE3FF" fill-rule="evenodd" d="M18.7928932,16.1715729 L22.3284271,19.7071068 C22.9142136,20.2928932 22.9142136,21.2426407 22.3284271,21.8284271 C21.7426407,22.4142136 20.7928932,22.4142136 20.2071068,21.8284271 L16.6715729,18.2928932 C16.0857864,17.7071068 16.0857864,16.7573593 16.6715729,16.1715729 C17.2573593,15.5857864 18.2071068,15.5857864 18.7928932,16.1715729 Z M10,2 C14.418278,2 18,5.581722 18,10 C18,14.418278 14.418278,18 10,18 C5.581722,18 2,14.418278 2,10 C2,5.581722 5.581722,2 10,2 Z M10,5 C7.23857625,5 5,7.23857625 5,10 C5,12.7614237 7.23857625,15 10,15 C12.7614237,15 15,12.7614237 15,10 C15,7.23857625 12.7614237,5 10,5 Z" transform="translate(-2 -2)"/>
</svg>
