<svg xmlns="http://www.w3.org/2000/svg" width="24" height="24" viewBox="0 0 24 24">
  <path fill-rule="evenodd" d="M21.3758658,19.4902477 L19.2369557,17.3513376 C20.3448237,15.8555727 21,14.0042987 21,12 C21,9.98563164 20.3382239,8.12582936 19.2202235,6.6261449 L21.3583994,4.48796902 C23.0110709,6.54421136 24,9.15661729 24,12 C24,14.8333516 23.0180362,17.4373533 21.3758658,19.4902477 Z M19.4902477,21.3758658 C17.4373533,23.0180362 14.8333516,24 12,24 C9.15661729,24 6.54421136,23.0110709 4.48796902,21.3583994 L6.6261449,19.2202235 C8.12582936,20.3382239 9.98563164,21 12,21 C14.0042987,21 15.8555727,20.3448237 17.3513376,19.2369557 L19.4902477,21.3758658 Z M4.50975225,2.62413417 C6.5626467,0.981963821 9.16664838,0 12,0 C14.8233184,0 17.4189084,0.975021666 19.4684185,2.60671374 L17.3287579,4.74637437 C15.8369601,3.64860705 13.9942252,3 12,3 C9.99570134,3 8.1444273,3.65517625 6.64866235,4.76304427 L4.50975225,2.62413417 Z M2.62413417,4.50975225 L4.76304427,6.64866235 C3.65517625,8.1444273 3,9.99570134 3,12 C3,13.9942252 3.64860705,15.8369601 4.74637437,17.3287579 L2.60671374,19.4684185 C0.975021666,17.4189084 0,14.8233184 0,12 C0,9.16664838 0.981963821,6.5626467 2.62413417,4.50975225 Z M16.3995482,12.5873964 C16.3995482,12.5873964 15.3040958,13.6852413 13.3553146,14.9073422 C11.4065335,16.1294431 10.0914724,16.5841725 10.0914724,16.5841725 C9.50853688,16.8292367 8.96774352,16.5088159 8.88912533,15.8809345 C8.88912533,15.8809345 8.66666667,14.6262092 8.66666667,11.9968157 C8.66666667,9.36742209 8.89017025,8.08855172 8.89017025,8.08855172 C8.96307237,7.46081322 9.49775158,7.16612179 10.0729315,7.43008618 C10.0729315,7.43008618 11.2906258,7.91998754 13.3553146,9.21477502 C15.4200035,10.5095625 16.3780663,11.4069732 16.3780663,11.4069732 C16.7556959,11.7229534 16.762605,12.2546881 16.3995482,12.5873964 Z"/>
</svg>
