<svg xmlns="http://www.w3.org/2000/svg" width="30" height="32" viewBox="0 0 30 32">
  <g fill="none" fill-rule="evenodd">
    <path fill="#B280F9" d="M23.1986446,15.7621893 C23.1986446,15.7621893 19.9122874,19.0557239 14.0659439,22.7220266 C8.21960041,26.3883292 4.2744173,27.7525175 4.2744173,27.7525175 C2.52561065,28.4877102 0.903230557,27.5264476 0.667375993,25.6428036 C0.667375993,25.6428036 0,21.8786276 0,13.990447 C0,6.10226627 0.670510743,2.26565517 0.670510743,2.26565517 C0.889217115,0.382439664 2.49325473,-0.501634641 4.21879438,0.290258534 C4.21879438,0.290258534 7.87187744,1.75996261 14.0659439,5.64432507 C20.2600104,9.52868752 23.1341989,12.2209196 23.1341989,12.2209196 C24.2670876,13.1688603 24.2878151,14.7640644 23.1986446,15.7621893 Z" opacity=".48" transform="translate(6)"/>
    <path fill="#D3B7FB" d="M23.1986446,19.7621893 C23.1986446,19.7621893 19.9122874,23.0557239 14.0659439,26.7220266 C8.21960041,30.3883292 4.2744173,31.7525175 4.2744173,31.7525175 C2.52561065,32.4877102 0.903230557,31.5264476 0.667375993,29.6428036 C0.667375993,29.6428036 0,25.8786276 0,17.990447 C0,10.1022663 0.670510743,6.26565517 0.670510743,6.26565517 C0.889217115,4.38243966 2.49325473,3.49836536 4.21879438,4.29025853 C4.21879438,4.29025853 7.87187744,5.75996261 14.0659439,9.64432507 C20.2600104,13.5286875 23.1341989,16.2209196 23.1341989,16.2209196 C24.2670876,17.1688603 24.2878151,18.7640644 23.1986446,19.7621893 Z"/>
  </g>
</svg>
