<svg xmlns="http://www.w3.org/2000/svg" width="24" height="24" viewBox="0 0 24 24"><path fill-rule="evenodd" d="M21.376 19.49l-2.139-2.139A8.96 8.96 0 0021 12a8.96 8.96 0 00-1.78-5.374l2.138-2.138A11.95 11.95 0 0124 12a11.95 11.95 0 01-2.624 7.49zm-1.886 1.886A11.95 11.95 0 0112 24a11.95 11.95 0 01-7.512-2.642l2.138-2.138A8.96 8.96 0 0012 21a8.96 8.96 0 005.351-1.763l2.14 2.139zM4.51 2.624A11.95 11.95 0 0112 0c2.823 0 5.419.975 7.468 2.607l-2.14 2.14A8.96 8.96 0 0012 3a8.96 8.96 0 00-5.351 1.763l-2.14-2.139zM2.624 4.51l2.139 2.139A8.96 8.96 0 003 12a8.96 8.96 0 001.746 5.329l-2.14 2.14A11.95 11.95 0 010 12c0-2.833.982-5.437 2.624-7.49zM16.4 12.587s-1.096 1.098-3.045 2.32c-1.948 1.222-3.264 1.677-3.264 1.677-.582.245-1.123-.075-1.202-.703 0 0-.222-1.255-.222-3.884 0-2.63.223-3.908.223-3.908.073-.628.608-.923 1.183-.659 0 0 1.218.49 3.282 1.785 2.065 1.295 3.023 2.192 3.023 2.192a.766.766 0 01.022 1.18z"/></svg>