<svg xmlns="http://www.w3.org/2000/svg" width="24" height="24" viewBox="0 0 24 24"><path fill="#D3B7FB" fill-rule="evenodd" d="M1.402 14.81c1.572 5.867 7.604 9.35 13.472 7.777a.5.5 0 11.259.966C8.731 25.27 2.151 21.47.436 15.068a.5.5 0 01.966-.259zM20 12a8 8 0 01-15.938 1h9.523l-2.292 2.293-.084.094a1 1 0 001.41 1.398l.088-.078 4-4 .08-.09a1 1 0 00.035-1.187l-.075-.094-4-4.5-.089-.09a1 1 0 00-1.231-.066l-.092.072-.088.09a1 1 0 00-.067 1.231l.072.091L13.772 11l-9.71-.001a8.001 8.001 0 0115.938 1zm3.62-2.96a.5.5 0 11-.966.259C21.08 3.43 15.05-.051 9.18 1.52a.5.5 0 11-.258-.966C15.324-1.161 21.904 2.638 23.62 9.04z" opacity=".64"/></svg>