<svg xmlns="http://www.w3.org/2000/svg" width="24" height="24" viewBox="0 0 24 24">
  <path fill="#D3B7FB" fill-rule="evenodd" d="M0.882357396,20.5014835 C5.17812461,24.7972507 12.1429394,24.7972507 16.4387066,20.5014835 C16.6339687,20.3062213 16.9505512,20.3062213 17.1458134,20.5014835 C17.3410755,20.6967456 17.3410755,21.0133281 17.1458134,21.2085903 C12.4595219,25.8948818 4.86154212,25.8948818 0.175250615,21.2085903 C-0.020011531,21.0133281 -0.020011531,20.6967456 0.175250615,20.5014835 C0.370512761,20.3062213 0.68709525,20.3062213 0.882357396,20.5014835 Z M15.5838456,8.76958047 C17.7929846,12.5959215 16.4819833,17.4886447 12.6556424,19.6977837 C9.1225753,21.7376009 4.68032936,20.7762081 2.28101107,17.6046198 L10.5282873,12.8430966 L9.68971653,15.974863 L9.66477676,16.0980433 C9.59676305,16.5902899 9.90439306,17.0676616 10.3968233,17.1996079 C10.8921847,17.3323396 11.4003684,17.0688488 11.5848859,16.6034072 L11.6215682,16.4925011 L13.0856698,11.0283995 L13.1098892,10.9102268 C13.1718851,10.4770156 12.9427545,10.0517721 12.5468523,9.86528655 L12.4348375,9.82051985 L6.7207359,7.92340554 L6.59923272,7.8912754 C6.14932202,7.80191966 5.69326843,8.03283098 5.49942467,8.44943177 L5.45658174,8.55737262 L5.4244516,8.67887579 C5.33509587,9.12878649 5.56600718,9.58484009 5.98260797,9.77868384 L6.09054882,9.82152678 L9.69110004,11.0170458 L1.28066635,15.8717215 C-0.265721599,12.2082548 1.12287486,7.88102151 4.65564236,5.84137724 C8.48198335,3.63223824 13.3747066,4.94323949 15.5838456,8.76958047 Z M17.2387373,4.39644661 C17.4339995,4.59170876 17.4339995,4.90829124 17.2387373,5.10355339 C17.0434752,5.29881554 16.7268927,5.29881554 16.5316306,5.10355339 C12.2358634,0.807786182 5.27104858,0.807786182 0.975281374,5.10355339 C0.780019228,5.29881554 0.463436739,5.29881554 0.268174593,5.10355339 C0.0729124472,4.90829124 0.0729124472,4.59170876 0.268174593,4.39644661 C4.95446609,-0.289844891 12.5524458,-0.289844891 17.2387373,4.39644661 Z" opacity=".64" transform="rotate(30 11.764 18.625)"/>
</svg>
