<svg xmlns="http://www.w3.org/2000/svg" viewBox="0 0 19 24">
  <path fill-rule="evenodd" d="M18.2497011,6 C19.1964749,6 19.9639868,6.76751186 19.9639868,7.71428571 C19.9639868,7.76896281 19.9613709,7.8236086 19.9561481,7.87803568 L18.5578797,22.4494643 C18.4735019,23.3287693 17.7347768,24 16.8514327,24 L6.14856733,24 C5.26522319,24 4.52649806,23.3287693 4.44212031,22.4494643 L3.04385191,7.87803568 C2.9534153,6.93559101 3.6441043,6.0982753 4.58654897,6.00783869 C4.64097605,6.00261589 4.69562184,6 4.75029894,6 L18.2497011,6 Z M14.3506494,8.54871729e-15 C14.9625886,8.24495037e-15 15.4746771,0.427511562 15.6045405,1.00016026 L19.7142857,1 C20.4243661,1 21,1.57563389 21,2.28571429 L21,2.71428571 C21,3.42436611 20.4243661,4 19.7142857,4 L3.28571429,4 C2.57563389,4 2,3.42436611 2,2.71428571 L2,2.28571429 C2,1.57563389 2.57563389,1 3.28571429,1 L7.03182313,1.00016026 C7.16168656,0.427511562 7.67377509,8.46977318e-15 8.28571429,8.54871729e-15 L14.3506494,8.54871729e-15 Z" transform="translate(-2)"/>
</svg>
