<svg viewBox="0 0 36 36" xmlns="http://www.w3.org/2000/svg"><path d="M4.783 10.105h26.434A2.783 2.783 0 0 1 34 12.888v11.54a2.783 2.783 0 0 1-2.783 2.783H18.174C17.061 30.014 14.288 32 11.044 32c-3.306 0-6.122-2.062-7.192-4.949A2.784 2.784 0 0 1 2 24.428V10.105C2 7.838 3.869 6 6.174 6h17.739a1.38 1.38 0 0 1 1.391 1.368 1.38 1.38 0 0 1-1.391 1.369H6.173a1.38 1.38 0 0 0-1.39 1.368zm6.26 19.842c3.074 0 5.566-2.45 5.566-5.473 0-3.023-2.492-5.474-5.566-5.474-3.073 0-5.565 2.45-5.565 5.474 0 3.023 2.492 5.473 5.565 5.473zm14.575-17.79a2.053 2.053 0 0 0 0 4.106h6.295v-4.105h-6.295zm.034 3.422a1.38 1.38 0 0 1-1.391-1.368 1.38 1.38 0 0 1 1.391-1.369 1.38 1.38 0 0 1 1.391 1.369 1.38 1.38 0 0 1-1.39 1.368zm-11.316 9.624s-.762.725-2.118 1.531c-1.355.806-2.27 1.106-2.27 1.106-.406.162-.782-.05-.837-.464 0 0-.154-.828-.154-2.562 0-1.735.155-2.579.155-2.579.05-.414.423-.608.823-.434 0 0 .847.323 2.283 1.177 1.436.854 2.103 1.447 2.103 1.447a.49.49 0 0 1 .015.778z" fill-rule="evenodd"/></svg>
