<svg xmlns="http://www.w3.org/2000/svg" viewBox="0 0 62 40"><defs><linearGradient id="a" x1="54.031%" x2="4.455%" y1="50%" y2="50%"><stop offset=".055%" stop-color="#4E238E"/><stop offset="100%" stop-color="#7130CC"/></linearGradient><linearGradient id="b" x1="73.721%" x2="0%" y1="50%" y2="50%"><stop offset="0%" stop-color="#7130CC"/><stop offset="100%" stop-color="#4E238E"/></linearGradient><linearGradient id="c" x1="20.909%" x2="100%" y1="50%" y2="50%"><stop offset="0%" stop-color="#7130CC"/><stop offset="100%" stop-color="#4E238E"/></linearGradient></defs><g fill="none" fill-rule="evenodd"><path fill="#7130CC" d="M32 35c-8.284 0-15-6.716-15-15 0-8.284 6.716-15 15-15 8.284 0 15 6.716 15 15 0 8.284-6.716 15-15 15zm5.633-14.245c.499-.428.49-1.111-.03-1.517 0 0-1.317-1.154-4.156-2.819-2.84-1.665-4.513-2.295-4.513-2.295-.791-.339-1.526.04-1.627.847 0 0-.307 1.644-.307 5.025 0 3.38.306 4.994.306 4.994.108.807.852 1.219 1.653.904 0 0 1.808-.585 4.488-2.156 2.68-1.571 4.186-2.983 4.186-2.983z"/><path fill="#4E238E" fill-rule="nonzero" d="M53.137 34.102L51.667 33c-1.988-.002-3.75-.019-5.288-.051a18.96 18.96 0 0 1-14.57 6.804 18.973 18.973 0 0 1-15.325-7.766c-2.3.008-4.344.012-6.133.013l-2.517 2.013a3 3 0 1 1-1.25-1.561l2.791-2.233a1 1 0 0 1 .625-.22c1.999 0 4.33-.004 6.994-.014a1 1 0 0 1 .826.43 16.977 16.977 0 0 0 13.989 7.338 16.964 16.964 0 0 0 13.32-6.437 1 1 0 0 1 .808-.378C47.653 30.98 49.674 31 52 31a1 1 0 0 1 .6.2l1.737 1.303a3 3 0 1 1-1.2 1.6z"/><path fill="url(#a)" fill-rule="nonzero" d="M55.416 6.548l-2.791 2.233A1 1 0 0 1 52 9c-2.998 0-4.984.003-5.957.009a1 1 0 0 1-.797-.39A16.967 16.967 0 0 0 31.782 2c-3.96 0-7.708 1.356-10.716 3.802a17.107 17.107 0 0 0-2.77 2.846 1 1 0 0 1-.805.39A718.071 718.071 0 0 0 9.001 9a1 1 0 0 1-.448-.106L5.083 7.16a3 3 0 1 1 .895-1.789L9.235 7c3.269 0 5.864.011 7.788.032a19.109 19.109 0 0 1 2.78-2.782A18.922 18.922 0 0 1 31.783 0 18.962 18.962 0 0 1 46.52 7.006C47.555 7.002 49.265 7 51.649 7l2.517-2.013a3 3 0 1 1 1.25 1.561z"/><path fill="#4E238E" d="M8.83 14H14a1 1 0 1 1 0 2H8.83a3.001 3.001 0 1 1 0-2z"/><path fill="url(#b)" d="M53.17 16H49a1 1 0 0 1 0-2h4.17a3.001 3.001 0 1 1 0 2z"/><path fill="url(#c)" d="M5.83 24H11a1 1 0 1 1 0 2H5.83a3.001 3.001 0 1 1 0-2z"/><path fill="#4E238E" d="M56.17 26H50a1 1 0 0 1 0-2h6.17a3.001 3.001 0 1 1 0 2z"/></g></svg>
