<svg xmlns="http://www.w3.org/2000/svg" width="37" height="32" viewBox="0 0 37 32"><path fill="#7234C8" fill-rule="evenodd" d="M19.466 13.789v14.165c6.17-.506 11.02-5.649 11.02-11.918 0-6.605-5.383-11.96-12.022-11.96S6.443 9.431 6.443 16.036c0 6.269 4.849 11.412 11.02 11.918V13.79l-3.337 2.987a1.005 1.005 0 01-1.415-.074.993.993 0 01.074-1.407l4.677-4.188v-.054h.061l.271-.243c.381-.341.96-.341 1.34 0l.271.243h.061v.054l4.677 4.188a.993.993 0 01.075 1.407c-.37.41-1.004.443-1.415.074l-3.337-2.987zm15.072-7.017l-.868.5c4.816 8.342 1.923 19.03-6.462 23.87l.499.863c8.864-5.117 11.922-16.415 6.83-25.233zM2.462 25.228l.868-.5C-1.486 16.385 1.407 5.697 9.792.857l-.499-.863C.43 5.112-2.629 16.41 2.463 25.228z"/></svg>