<svg xmlns="http://www.w3.org/2000/svg" width="37" height="32" viewBox="0 0 37 32">
  <path fill="#7234C8" fill-rule="evenodd" d="M21.4659668,22.2114034 L21.4659668,8.04587732 C27.6363677,8.55231081 32.4853797,13.6949827 32.4853797,19.9643858 C32.4853797,26.569404 27.1033151,31.9238292 20.4642019,31.9238292 C13.8250888,31.9238292 8.44302415,26.569404 8.44302415,19.9643858 C8.44302415,13.6949827 13.2920362,8.55231081 19.4624371,8.04587732 L19.4624371,22.2114034 L16.1255232,19.2236038 C15.7142887,18.8553934 15.080883,18.8885594 14.7107719,19.297682 C14.3406609,19.7068046 14.373998,20.3369575 14.7852325,20.7051678 L19.4624371,24.8930343 L19.4624371,24.9474872 L19.5232527,24.9474872 L19.7940566,25.1899591 C20.1750328,25.5310768 20.7533711,25.5310768 21.1343473,25.1899591 L21.4051512,24.9474872 L21.4659668,24.9474872 L21.4659668,24.8930343 L26.1431714,20.7051678 C26.5544059,20.3369575 26.587743,19.7068046 26.217632,19.297682 C25.8475209,18.8885594 25.2141152,18.8553934 24.8028807,19.2236038 L21.4659668,22.2114034 Z M36.5377403,29.2283143 L35.6701865,28.7274319 C40.4863457,20.3855996 37.5933155,9.69878627 29.2084229,4.85776624 L29.706733,3.99466776 C38.5707624,9.1123175 41.6291085,20.4098059 36.5377403,29.2283143 Z M4.46225967,10.7716857 L5.32981345,11.2725681 C0.513654331,19.6144004 3.40668446,30.3012137 11.7915771,35.1422338 L11.293267,36.0053322 C2.42923759,30.8876825 -0.629108541,19.5901941 4.46225967,10.7716857 Z" transform="matrix(1 0 0 -1 -2 36)"/>
</svg>
