<svg xmlns="http://www.w3.org/2000/svg" viewBox="0 0 92 92">
  <g fill="none" fill-rule="evenodd">
    <path fill="#FF8A3C" fill-rule="nonzero" d="M46,92 C71.4050985,92 92,71.4050985 92,46 C92,20.5949015 71.4050985,0 46,0 C20.5949015,0 0,20.5949015 0,46 C0,71.4050985 20.5949015,92 46,92 Z M46,88 C22.8040405,88 4,69.1959595 4,46 C4,22.8040405 22.8040405,4 46,4 C69.1959595,4 88,22.8040405 88,46 C88,69.1959595 69.1959595,88 46,88 Z"/>
    <path fill="#FF5D50" d="M39.5,83.4466761 L40.2027876,79.5088988 C42.1741567,79.8607353 44.1846417,80.0391404 46.2187927,80.0391404 C64.9964742,80.0391404 80.2187927,64.8168219 80.2187927,46.0391404 C80.2187927,40.688109 78.9830172,35.5179549 76.6414891,30.8405973 L80.2183259,29.05 C82.8365828,34.2801419 84.2187927,40.0629381 84.2187927,46.0391404 C84.2187927,67.0259609 67.2056132,84.0391404 46.2187927,84.0391404 C43.9487371,84.0391404 41.7030803,83.8398668 39.5,83.4466761 Z M46,8 L46,12 C32.0647313,12 19.6989857,20.4609748 14.514624,33.1424614 L10.8120762,31.6288102 C16.6060621,17.4561196 30.4262155,8 46,8 Z"/>
    <path fill="#F53568" d="M51.3013762,75.5327159 L50.598915,71.5948805 C62.9060542,69.3994387 72,58.6467634 72,46 C72,35.4838099 65.699387,26.1280305 56.1910893,22.0726839 L57.7603441,18.393358 C68.7301665,23.0720538 76,33.8670284 76,46 C76,60.5932009 65.5085028,72.9983399 51.3013762,75.5327159 Z M46,16 L46,20 C31.6405965,20 20,31.6405965 20,46 C20,54.9348862 24.5400762,63.0917675 31.9070344,67.8532152 L29.7357677,71.2126201 C21.2403104,65.7217954 16,56.3068454 16,46 C16,29.4314575 29.4314575,16 46,16 Z"/>
    <path fill="#7130CC" d="M46,68 C58.1502645,68 68,58.1502645 68,46 C68,33.8497355 58.1502645,24 46,24 C33.8497355,24 24,33.8497355 24,46 L28,46 C28,36.0588745 36.0588745,28 46,28 C55.9411255,28 64,36.0588745 64,46 C64,55.9411255 55.9411255,64 46,64 L46,68 Z" transform="rotate(180 46 46)"/>
    <path fill="#FFF" d="M58.3322039,47.510448 C58.3322039,47.510448 55.5935729,50.3334777 50.7216199,53.4760228 C45.849667,56.6185679 42.5620144,57.7878722 42.5620144,57.7878722 C41.1046755,58.4180373 39.7526921,57.5940979 39.5561467,55.9795459 C39.5561467,55.9795459 39,52.7531094 39,45.9918117 C39,39.2305139 39.558759,35.9419901 39.558759,35.9419901 C39.7410143,34.3278054 41.0777123,33.5700275 42.515662,34.248793 C42.515662,34.248793 45.5598979,35.5085394 50.7216199,38.8379929 C55.883342,42.1674464 58.2784991,44.475074 58.2784991,44.475074 C59.222573,45.2875945 59.2398459,46.6549123 58.3322039,47.510448 Z"/>
  </g>
</svg>
