<svg xmlns="http://www.w3.org/2000/svg" viewBox="0 0 255 73">
  <g fill="none" fill-rule="evenodd" transform="translate(2.644 .644)">
    <g transform="translate(-2)">
      <path fill="#FF8A3C" fill-rule="nonzero" d="M36,72 C55.882251,72 72,55.882251 72,36 C72,16.117749 55.882251,0 36,0 C16.117749,0 0,16.117749 0,36 C0,55.882251 16.117749,72 36,72 Z M36,68.8695652 C17.8466404,68.8695652 3.13043478,54.1533596 3.13043478,36 C3.13043478,17.8466404 17.8466404,3.13043478 36,3.13043478 C54.1533596,3.13043478 68.8695652,17.8466404 68.8695652,36 C68.8695652,54.1533596 54.1533596,68.8695652 36,68.8695652 Z"/>
      <path fill="#FF5D50" fill-rule="nonzero" d="M30.9130435,65.3060943 L31.4630512,62.2243556 C33.0058618,62.4997059 34.5792848,62.6393273 36.1712291,62.6393273 C50.8668059,62.6393273 62.7799248,50.7262085 62.7799248,36.0306316 C62.7799248,31.8428679 61.8127961,27.7966604 59.9802958,24.1361196 L62.7795594,22.7347826 C64.8286301,26.8279371 65.9103595,31.3536037 65.9103595,36.0306316 C65.9103595,52.4550999 52.5956973,65.7697621 36.1712291,65.7697621 C34.3946638,65.7697621 32.6371933,65.6138088 30.9130435,65.3060943 Z M36,6.26086957 L36,9.39130435 C25.0941376,9.39130435 15.4165975,16.0129368 11.3592709,25.9375785 L8.46162484,24.7529819 C12.9960486,13.661311 23.8118208,6.26086957 36,6.26086957 Z"/>
      <path fill="#F53568" fill-rule="nonzero" d="M40.1489031,59.1125603 L39.5991508,56.030776 C49.230825,54.3126042 56.3478261,45.897467 56.3478261,36 C56.3478261,27.7699382 51.4169115,20.4480239 43.9756351,17.2742743 L45.2037476,14.3948019 C53.788826,18.0563899 59.4782609,26.5046309 59.4782609,36 C59.4782609,47.4207659 51.267524,57.1291356 40.1489031,59.1125603 Z M36,12.5217391 L36,15.6521739 C24.762206,15.6521739 15.6521739,24.762206 15.6521739,36 C15.6521739,42.9925196 19.205277,49.3761659 24.9707226,53.1025162 L23.2714704,55.7316157 C16.6228517,51.4344486 12.5217391,44.0662269 12.5217391,36 C12.5217391,23.0333146 23.0333146,12.5217391 36,12.5217391 Z"/>
      <path fill="#7130CC" fill-rule="nonzero" d="M36,53.2173913 C45.5089026,53.2173913 53.2173913,45.5089026 53.2173913,36 C53.2173913,26.4910974 45.5089026,18.7826087 36,18.7826087 C26.4910974,18.7826087 18.7826087,26.4910974 18.7826087,36 L21.9130435,36 C21.9130435,28.2199887 28.2199887,21.9130435 36,21.9130435 C43.7800113,21.9130435 50.0869565,28.2199887 50.0869565,36 C50.0869565,43.7800113 43.7800113,50.0869565 36,50.0869565 L36,53.2173913 Z" transform="rotate(180 36 36)"/>
      <path fill="#0C0417" d="M45.65129,37.1820897 C45.65129,37.1820897 43.5080135,39.3914173 39.6951808,41.8508004 C35.8823481,44.3101836 33.3094026,45.2252913 33.3094026,45.2252913 C32.1688765,45.718464 31.1108025,45.0736418 30.9569843,43.8100794 C30.9569843,43.8100794 30.5217391,41.2850421 30.5217391,35.9935917 C30.5217391,30.7021413 30.9590287,28.128514 30.9590287,28.128514 C31.1016633,26.865239 32.1477748,26.2721954 33.2731268,26.8034032 C33.2731268,26.8034032 35.6555722,27.7892917 39.6951808,30.394951 C43.7347894,33.0006103 45.6092601,34.8065796 45.6092601,34.8065796 C46.3481006,35.4424653 46.3616185,36.5125401 45.65129,37.1820897 Z"/>
    </g>
    <path fill="#1C0937" d="M96.0608778,47.4917662 L104.21115,25.7170982 L98.1548212,25.7170982 L93.064928,41.2082191 L87.9750349,25.7170982 L81.9187063,25.7170982 L90.0689783,47.4917662 L96.0608778,47.4917662 Z M111.459415,31.1607652 L106.079592,31.1607652 L106.079592,47.4917662 L111.459415,47.4917662 L111.459415,31.1607652 Z M108.721182,30.1653518 C110.428551,30.1653518 111.749346,28.9832984 111.749346,27.3657516 C111.749346,25.7170982 110.428551,24.5350448 108.721182,24.5350448 C107.013813,24.5350448 105.725232,25.7170982 105.725232,27.3657516 C105.725232,28.9832984 107.013813,30.1653518 108.721182,30.1653518 Z M126.535808,39.3729257 C126.535808,36.7910722 125.021726,35.3290588 122.895568,35.3290588 C120.704981,35.3290588 119.255328,36.9777122 119.255328,39.3729257 C119.255328,41.7992458 120.737195,43.3545793 122.895568,43.3545793 C125.215013,43.3545793 126.535808,41.5503925 126.535808,39.3729257 Z M126.729095,47.4917662 L126.729095,46.2163928 C126.245877,46.7452061 124.635152,47.8961529 122.154634,47.8961529 C117.290242,47.8961529 113.875504,44.3499927 113.875504,39.341819 C113.875504,34.271432 116.968097,30.7563785 121.864703,30.7563785 C124.441864,30.7563785 126.020376,32.0006452 126.374735,32.4050319 L126.374735,25.0016448 L131.754559,25.0016448 L131.754559,47.4917662 L126.729095,47.4917662 Z M150.761122,40.6794058 L139.67933,40.6794058 C139.808188,42.1414192 141.257841,43.3856859 143.255141,43.3856859 C145.284655,43.3856859 146.476592,42.1103125 146.798737,41.6437125 L150.342334,44.2877793 C149.859116,45.252086 147.539671,47.8961529 143.158497,47.8961529 C137.585386,47.8961529 134.170648,44.1944593 134.170648,39.3729257 C134.170648,34.5824987 137.520957,30.7563785 142.481992,30.7563785 C147.861816,30.7563785 150.793337,34.084792 150.793337,39.6528857 C150.793337,39.9639524 150.793337,40.3061257 150.761122,40.6794058 Z M142.578636,34.9557787 C140.806837,34.9557787 139.96926,36.2311522 139.840402,37.3820989 L145.316869,37.3820989 C145.25244,36.0756188 144.25379,34.9557787 142.578636,34.9557787 Z M152.24299,39.3729257 C152.24299,34.4269654 156.205375,30.7563785 161.424126,30.7563785 C166.868379,30.7563785 170.701906,34.364752 170.701906,39.3107123 C170.701906,44.225566 166.771736,47.8961529 161.424126,47.8961529 C156.044303,47.8961529 152.24299,44.2877793 152.24299,39.3729257 Z M157.622814,39.3729257 C157.622814,41.7370325 159.233539,43.3234726 161.424126,43.3234726 C163.646928,43.3234726 165.322083,41.6437125 165.322083,39.3107123 C165.322083,36.9154989 163.614713,35.3290588 161.424126,35.3290588 C159.201325,35.3290588 157.622814,36.9777122 157.622814,39.3729257 Z M184.328646,47.8961529 C187.131308,47.8961529 189.386324,47.1184862 190.99705,46.0608594 L189.450753,41.3948591 C188.258816,42.1725259 186.454804,42.9190859 184.521933,42.9190859 C180.398475,42.9190859 178.143459,39.9639524 178.143459,36.5733255 C178.143459,33.1826986 180.398475,30.2897785 184.521933,30.2897785 C186.454804,30.2897785 188.162173,31.0363385 189.35411,31.8140052 L190.900406,27.1480049 C189.289681,26.0903782 187.131308,25.3127115 184.328646,25.3127115 C177.305882,25.3127115 172.409276,30.1964585 172.409276,36.5733255 C172.409276,42.9812992 177.048166,47.8961529 184.328646,47.8961529 Z M192.672205,39.3729257 C192.672205,34.4269654 196.63459,30.7563785 201.853341,30.7563785 C207.297594,30.7563785 211.131121,34.364752 211.131121,39.3107123 C211.131121,44.225566 207.20095,47.8961529 201.853341,47.8961529 C196.473517,47.8961529 192.672205,44.2877793 192.672205,39.3729257 Z M198.052029,39.3729257 C198.052029,41.7370325 199.662754,43.3234726 201.853341,43.3234726 C204.076143,43.3234726 205.751297,41.6437125 205.751297,39.3107123 C205.751297,36.9154989 204.043928,35.3290588 201.853341,35.3290588 C199.63054,35.3290588 198.052029,36.9777122 198.052029,39.3729257 Z M218.894819,31.1607652 L213.514995,31.1607652 L213.514995,47.4917662 L218.894819,47.4917662 L218.894819,31.1607652 Z M216.156585,30.1653518 C217.863955,30.1653518 219.18475,28.9832984 219.18475,27.3657516 C219.18475,25.7170982 217.863955,24.5350448 216.156585,24.5350448 C214.449216,24.5350448 213.160636,25.7170982 213.160636,27.3657516 C213.160636,28.9832984 214.449216,30.1653518 216.156585,30.1653518 Z M232.070555,47.4917662 L237.450379,47.4917662 L237.450379,38.4397256 C237.450379,35.1113121 236.934947,30.7563785 231.651766,30.7563785 C229.525609,30.7563785 228.043741,31.8762186 227.399451,32.8405253 L227.399451,31.1607652 L222.148485,31.1607652 L222.148485,47.4917662 L227.528309,47.4917662 L227.528309,37.7553789 C227.528309,36.4488988 228.365886,35.4223788 229.847754,35.4223788 C231.136334,35.4223788 232.070555,36.2311522 232.070555,37.7553789 L232.070555,47.4917662 Z"/>
    <path fill="#1C0937" fill-rule="nonzero" d="M243.376888,28.3893296 L241.956407,28.3893296 L241.956407,33.5350448 L240.347783,33.5350448 L240.347783,28.3893296 L238.927303,28.3893296 L238.927303,26.9500344 L243.376888,26.9500344 L243.376888,28.3893296 Z M248.588454,32.9988368 L247.11153,32.9988368 L245.662828,29.2171594 L245.662828,33.5350448 L244.120054,33.5350448 L244.120054,26.9500344 L246.208443,26.9500344 L247.845288,31.1174053 L249.491541,26.9500344 L251.57993,26.9500344 L251.57993,33.5350448 L250.037156,33.5350448 L250.037156,29.2171594 L248.588454,32.9988368 Z"/>
  </g>
</svg>
