<svg xmlns="http://www.w3.org/2000/svg" viewBox="0 0 255 73">
  <g fill="#FFF" fill-rule="evenodd" transform="translate(.644 .644)">
    <path d="M98.0608778,47.4917662 L106.21115,25.7170982 L100.154821,25.7170982 L95.064928,41.2082191 L89.9750349,25.7170982 L83.9187063,25.7170982 L92.0689783,47.4917662 L98.0608778,47.4917662 Z M113.459415,31.1607652 L108.079592,31.1607652 L108.079592,47.4917662 L113.459415,47.4917662 L113.459415,31.1607652 Z M110.721182,30.1653518 C112.428551,30.1653518 113.749346,28.9832984 113.749346,27.3657516 C113.749346,25.7170982 112.428551,24.5350448 110.721182,24.5350448 C109.013813,24.5350448 107.725232,25.7170982 107.725232,27.3657516 C107.725232,28.9832984 109.013813,30.1653518 110.721182,30.1653518 Z M128.535808,39.3729257 C128.535808,36.7910722 127.021726,35.3290588 124.895568,35.3290588 C122.704981,35.3290588 121.255328,36.9777122 121.255328,39.3729257 C121.255328,41.7992458 122.737195,43.3545793 124.895568,43.3545793 C127.215013,43.3545793 128.535808,41.5503925 128.535808,39.3729257 Z M128.729095,47.4917662 L128.729095,46.2163928 C128.245877,46.7452061 126.635152,47.8961529 124.154634,47.8961529 C119.290242,47.8961529 115.875504,44.3499927 115.875504,39.341819 C115.875504,34.271432 118.968097,30.7563785 123.864703,30.7563785 C126.441864,30.7563785 128.020376,32.0006452 128.374735,32.4050319 L128.374735,25.0016448 L133.754559,25.0016448 L133.754559,47.4917662 L128.729095,47.4917662 Z M152.761122,40.6794058 L141.67933,40.6794058 C141.808188,42.1414192 143.257841,43.3856859 145.255141,43.3856859 C147.284655,43.3856859 148.476592,42.1103125 148.798737,41.6437125 L152.342334,44.2877793 C151.859116,45.252086 149.539671,47.8961529 145.158497,47.8961529 C139.585386,47.8961529 136.170648,44.1944593 136.170648,39.3729257 C136.170648,34.5824987 139.520957,30.7563785 144.481992,30.7563785 C149.861816,30.7563785 152.793337,34.084792 152.793337,39.6528857 C152.793337,39.9639524 152.793337,40.3061257 152.761122,40.6794058 Z M144.578636,34.9557787 C142.806837,34.9557787 141.96926,36.2311522 141.840402,37.3820989 L147.316869,37.3820989 C147.25244,36.0756188 146.25379,34.9557787 144.578636,34.9557787 Z M154.24299,39.3729257 C154.24299,34.4269654 158.205375,30.7563785 163.424126,30.7563785 C168.868379,30.7563785 172.701906,34.364752 172.701906,39.3107123 C172.701906,44.225566 168.771736,47.8961529 163.424126,47.8961529 C158.044303,47.8961529 154.24299,44.2877793 154.24299,39.3729257 Z M159.622814,39.3729257 C159.622814,41.7370325 161.233539,43.3234726 163.424126,43.3234726 C165.646928,43.3234726 167.322083,41.6437125 167.322083,39.3107123 C167.322083,36.9154989 165.614713,35.3290588 163.424126,35.3290588 C161.201325,35.3290588 159.622814,36.9777122 159.622814,39.3729257 Z M186.328646,47.8961529 C189.131308,47.8961529 191.386324,47.1184862 192.99705,46.0608594 L191.450753,41.3948591 C190.258816,42.1725259 188.454804,42.9190859 186.521933,42.9190859 C182.398475,42.9190859 180.143459,39.9639524 180.143459,36.5733255 C180.143459,33.1826986 182.398475,30.2897785 186.521933,30.2897785 C188.454804,30.2897785 190.162173,31.0363385 191.35411,31.8140052 L192.900406,27.1480049 C191.289681,26.0903782 189.131308,25.3127115 186.328646,25.3127115 C179.305882,25.3127115 174.409276,30.1964585 174.409276,36.5733255 C174.409276,42.9812992 179.048166,47.8961529 186.328646,47.8961529 Z M194.672205,39.3729257 C194.672205,34.4269654 198.63459,30.7563785 203.853341,30.7563785 C209.297594,30.7563785 213.131121,34.364752 213.131121,39.3107123 C213.131121,44.225566 209.20095,47.8961529 203.853341,47.8961529 C198.473517,47.8961529 194.672205,44.2877793 194.672205,39.3729257 Z M200.052029,39.3729257 C200.052029,41.7370325 201.662754,43.3234726 203.853341,43.3234726 C206.076143,43.3234726 207.751297,41.6437125 207.751297,39.3107123 C207.751297,36.9154989 206.043928,35.3290588 203.853341,35.3290588 C201.63054,35.3290588 200.052029,36.9777122 200.052029,39.3729257 Z M220.894819,31.1607652 L215.514995,31.1607652 L215.514995,47.4917662 L220.894819,47.4917662 L220.894819,31.1607652 Z M218.156585,30.1653518 C219.863955,30.1653518 221.18475,28.9832984 221.18475,27.3657516 C221.18475,25.7170982 219.863955,24.5350448 218.156585,24.5350448 C216.449216,24.5350448 215.160636,25.7170982 215.160636,27.3657516 C215.160636,28.9832984 216.449216,30.1653518 218.156585,30.1653518 Z M234.070555,47.4917662 L239.450379,47.4917662 L239.450379,38.4397256 C239.450379,35.1113121 238.934947,30.7563785 233.651766,30.7563785 C231.525609,30.7563785 230.043741,31.8762186 229.399451,32.8405253 L229.399451,31.1607652 L224.148485,31.1607652 L224.148485,47.4917662 L229.528309,47.4917662 L229.528309,37.7553789 C229.528309,36.4488988 230.365886,35.4223788 231.847754,35.4223788 C233.136334,35.4223788 234.070555,36.2311522 234.070555,37.7553789 L234.070555,47.4917662 Z"/>
    <path fill-rule="nonzero" d="M245.376888,28.3893296 L243.956407,28.3893296 L243.956407,33.5350448 L242.347783,33.5350448 L242.347783,28.3893296 L240.927303,28.3893296 L240.927303,26.9500344 L245.376888,26.9500344 L245.376888,28.3893296 Z M250.588454,32.9988368 L249.11153,32.9988368 L247.662828,29.2171594 L247.662828,33.5350448 L246.120054,33.5350448 L246.120054,26.9500344 L248.208443,26.9500344 L249.845288,31.1174053 L251.491541,26.9500344 L253.57993,26.9500344 L253.57993,33.5350448 L252.037156,33.5350448 L252.037156,29.2171594 L250.588454,32.9988368 Z"/>
    <path d="M36,72 C16.117749,72 0,55.882251 0,36 C0,16.117749 16.117749,0 36,0 C55.882251,0 72,16.117749 72,36 C72,55.882251 55.882251,72 36,72 Z M36,68.8695652 C54.1533596,68.8695652 68.8695652,54.1533596 68.8695652,36 C68.8695652,17.8466404 54.1533596,3.13043478 36,3.13043478 C17.8466404,3.13043478 3.13043478,17.8466404 3.13043478,36 C3.13043478,54.1533596 17.8466404,68.8695652 36,68.8695652 Z M30.9130435,65.3060943 L31.4630512,62.2243556 C33.0058618,62.4997059 34.5792848,62.6393273 36.1712291,62.6393273 C50.8668059,62.6393273 62.7799248,50.7262085 62.7799248,36.0306316 C62.7799248,31.8428679 61.8127961,27.7966604 59.9802958,24.1361196 L62.7795594,22.7347826 C64.8286301,26.8279371 65.9103595,31.3536037 65.9103595,36.0306316 C65.9103595,52.4550999 52.5956973,65.7697621 36.1712291,65.7697621 C34.3946638,65.7697621 32.6371933,65.6138088 30.9130435,65.3060943 Z M36,6.26086957 L36,9.39130435 C25.0941376,9.39130435 15.4165975,16.0129368 11.3592709,25.9375785 L8.46162484,24.7529819 C12.9960486,13.661311 23.8118208,6.26086957 36,6.26086957 Z M40.1489031,59.1125603 L39.5991508,56.030776 C49.230825,54.3126042 56.3478261,45.897467 56.3478261,36 C56.3478261,27.7699382 51.4169115,20.4480239 43.9756351,17.2742743 L45.2037476,14.3948019 C53.788826,18.0563899 59.4782609,26.5046309 59.4782609,36 C59.4782609,47.4207659 51.267524,57.1291356 40.1489031,59.1125603 Z M36,12.5217391 L36,15.6521739 C24.762206,15.6521739 15.6521739,24.762206 15.6521739,36 C15.6521739,42.9925196 19.205277,49.3761659 24.9707226,53.1025162 L23.2714704,55.7316157 C16.6228517,51.4344486 12.5217391,44.0662269 12.5217391,36 C12.5217391,23.0333146 23.0333146,12.5217391 36,12.5217391 Z M36,18.7826087 L36,21.9130435 C28.2199887,21.9130435 21.9130435,28.2199887 21.9130435,36 C21.9130435,43.7800113 28.2199887,50.0869565 36,50.0869565 C43.7800113,50.0869565 50.0869565,43.7800113 50.0869565,36 L53.2173913,36 C53.2173913,45.5089026 45.5089026,53.2173913 36,53.2173913 C26.4910974,53.2173913 18.7826087,45.5089026 18.7826087,36 C18.7826087,26.4910974 26.4910974,18.7826087 36,18.7826087 Z M45.65129,37.1820897 C45.65129,37.1820897 43.5080135,39.3914173 39.6951808,41.8508004 C35.8823481,44.3101836 33.3094026,45.2252913 33.3094026,45.2252913 C32.1688765,45.718464 31.1108025,45.0736418 30.9569843,43.8100794 C30.9569843,43.8100794 30.5217391,41.2850421 30.5217391,35.9935917 C30.5217391,30.7021413 30.9590287,28.128514 30.9590287,28.128514 C31.1016633,26.865239 32.1477748,26.2721954 33.2731268,26.8034032 C33.2731268,26.8034032 35.6555722,27.7892917 39.6951808,30.394951 C43.7347894,33.0006103 45.6092601,34.8065796 45.6092601,34.8065796 C46.3481006,35.4424653 46.3616185,36.5125401 45.65129,37.1820897 Z"/>
  </g>
</svg>
